<svg width="109" height="633" viewBox="0 0 109 633" fill="none" xmlns="http://www.w3.org/2000/svg">
<path fill-rule="evenodd" clip-rule="evenodd" d="M284.914 -332.488C378.816 -392.839 500.328 -309.147 606.445 -274.44C695.841 -245.202 781.671 -211.371 850.687 -147.445C922.505 -80.9233 976.461 0.473966 1004.51 94.2671C1036.23 200.339 1064.83 316.816 1019.74 417.899C973.65 521.226 876.3 607.001 765.538 629.99C662.06 651.466 576.585 548.577 472.273 531.525C367.351 514.373 251.989 586.47 161.155 531.189C65.3803 472.901 -6.1279 356.625 1.04142 244.736C8.06001 135.198 147.437 87.9165 195.868 -10.5613C246.231 -112.969 188.927 -270.797 284.914 -332.488Z" fill="#FFCB47"/>
</svg>
